<?xml version="1.0" standalone="no"?>
<!DOCTYPE svg PUBLIC "-//W3C//DTD SVG 20010904//EN"
 "http://www.w3.org/TR/2001/REC-SVG-20010904/DTD/svg10.dtd">
<svg version="1.0" xmlns="http://www.w3.org/2000/svg"
 width="1024.000000pt" height="1024.000000pt" viewBox="0 0 1024.000000 1024.000000"
 preserveAspectRatio="xMidYMid meet">
<metadata>
Created by potrace 1.14, written by Peter Selinger 2001-2017
</metadata>
<g transform="translate(0.000000,1024.000000) scale(0.100000,-0.100000)"
fill="#000000" stroke="none">
<path d="M2930 9233 c-574 -25 -948 -152 -1289 -438 -275 -231 -469 -549 -560
-917 -39 -157 -58 -307 -71 -555 -13 -258 -13 -4084 0 -4373 19 -436 70 -677
200 -945 260 -536 744 -878 1370 -969 238 -35 439 -37 2675 -33 2390 4 2270 1
2555 58 694 139 1228 673 1370 1368 58 284 55 155 55 2696 0 2166 -1 2339 -18
2464 -64 494 -225 833 -539 1137 -275 266 -614 424 -1028 479 -246 32 -456 35
-2555 33 -1155 -1 -2129 -3 -2165 -5z m4658 -513 c187 -66 300 -281 248 -475
-7 -27 -22 -68 -34 -91 -11 -22 -175 -215 -364 -429 -189 -213 -354 -401 -366
-417 l-24 -29 104 -107 c578 -598 834 -1395 712 -2212 -40 -272 -124 -529
-254 -787 -272 -534 -739 -970 -1293 -1207 -521 -223 -1123 -266 -1682 -121
-134 35 -225 67 -379 133 l-130 55 -35 -40 c-20 -22 -97 -110 -172 -194 -550
-621 -945 -1068 -1012 -1146 -93 -106 -150 -142 -235 -150 -105 -10 -194 35
-257 127 -28 42 -30 51 -30 140 0 117 2 121 175 315 69 78 170 193 225 255 55
63 156 177 225 255 148 167 463 523 573 647 42 48 77 90 77 93 0 9 -75 74 -86
75 -7 0 -109 -110 -228 -244 -119 -135 -235 -258 -258 -274 -243 -164 -569
-27 -629 266 -16 77 -3 169 35 246 23 47 394 493 509 614 l41 42 -63 128
c-161 322 -243 623 -272 1001 -18 229 1 463 61 756 51 249 203 597 368 845
300 451 711 782 1222 985 95 38 119 46 285 91 521 142 1141 100 1647 -112 32
-13 61 -24 66 -24 8 0 99 102 507 565 130 149 260 293 288 322 117 121 276
158 435 103z"/>
<path d="M5045 7449 c-293 -43 -528 -119 -757 -245 -299 -165 -556 -402 -753
-694 -72 -107 -194 -357 -233 -477 -72 -219 -102 -389 -109 -623 -13 -386 82
-762 275 -1100 165 -288 409 -546 682 -722 358 -232 720 -338 1150 -338 331 0
619 64 910 203 364 174 699 481 905 832 157 266 242 523 280 845 55 461 -62
957 -320 1360 -25 38 -48 70 -52 69 -9 0 -133 -143 -133 -153 0 -3 24 -48 53
-99 365 -638 337 -1419 -72 -2019 -428 -628 -1174 -939 -1921 -802 -493 91
-946 389 -1227 807 -62 93 -158 268 -181 332 -6 17 -22 62 -36 101 -31 88 -59
192 -82 309 -26 129 -26 511 0 640 65 327 170 571 353 816 185 248 412 435
698 574 232 113 437 167 698 183 239 15 451 -9 692 -78 231 -67 516 -229 700
-398 l59 -55 63 69 c34 38 63 77 63 86 0 9 -43 53 -96 97 -310 259 -676 421
-1072 475 -123 17 -434 20 -537 5z"/>
<path d="M5145 6974 c-251 -26 -467 -99 -690 -232 -116 -70 -185 -124 -288
-225 -104 -102 -159 -168 -230 -277 -418 -647 -330 -1490 213 -2030 247 -246
500 -380 860 -456 122 -26 436 -26 575 0 678 126 1199 653 1316 1329 18 104
20 150 16 312 -5 208 -21 307 -77 478 -34 100 -128 299 -145 303 -5 1 -100
-102 -210 -229 -227 -263 -250 -281 -347 -275 -164 11 -238 196 -130 329 20
25 126 149 235 274 108 125 197 231 197 235 0 13 -146 132 -235 192 -180 121
-388 207 -600 249 -97 19 -366 33 -460 23z"/>
</g>
</svg>
