<?xml version="1.0" encoding="utf-8"?>
<!-- Generator: Adobe Illustrator 27.4.1, SVG Export Plug-In . SVG Version: 6.00 Build 0)  -->
<svg version="1.1" id="Layer_1" xmlns="http://www.w3.org/2000/svg" xmlns:xlink="http://www.w3.org/1999/xlink" x="0px" y="0px"
	 viewBox="0 0 250 250" style="enable-background:new 0 0 250 250;" xml:space="preserve">
<style type="text/css">
	.st0{fill:none;stroke:#FFFFFF;stroke-width:7.54;stroke-linecap:round;stroke-miterlimit:32;}
	.st1{fill:none;stroke:#FFFFFF;stroke-width:13.34;stroke-linecap:round;stroke-miterlimit:32;}
	.st2{fill:#FFFFFF;stroke:#FFFFFF;stroke-width:4.6399;stroke-linecap:round;stroke-miterlimit:31.9991;}
	.st3{fill:#010101;stroke:#010101;stroke-width:4.6399;stroke-linecap:round;stroke-miterlimit:31.9991;}
</style>
<circle class="st0" cx="128.7" cy="118.7" r="48.3"/>
<circle class="st1" cx="128.7" cy="118.7" r="64.4"/>
<path class="st2" d="M193.3,30.4L193.3,30.4c3.6,3.2,3.9,8.7,0.8,12.3L173,66.5c-3.2,3.6-8.7,3.9-12.3,0.8l0,0
	c-3.6-3.2-3.9-8.7-0.8-12.3L181,31.1C184.2,27.5,189.7,27.2,193.3,30.4z"/>
<path class="st2" d="M96.3,171.3L96.3,171.3c2.1,1.9,2.3,5.1,0.5,7.2L60,220.1c-1.9,2.1-5.1,2.3-7.2,0.5l0,0
	c-2.1-1.9-2.3-5.1-0.5-7.2L89,171.8C90.9,169.7,94.2,169.4,96.3,171.3z"/>
<path class="st2" d="M175.9,77.2L175.9,77.2c1.3,1.2,1.4,3.1,0.3,4.4l-21.8,25.1c-1.2,1.3-3.1,1.4-4.4,0.3l0,0
	c-1.3-1.2-1.4-3.1-0.3-4.4l21.8-25.1C172.6,76.2,174.6,76.1,175.9,77.2z"/>
<path class="st2" d="M78.6,157.1c-0.3-0.7,7.7,5,1,13.1l-11.1,12.5c-3.2,3.7-8.8,4-12.4,0.8c-3.7-3.2-4-8.8-0.8-12.4l11.1-12.9
	C75.4,146.9,78.8,157.8,78.6,157.1z"/>
<path class="st3" d="M85,163.9"/>
</svg>
