<?xml version="1.0" ?>

<!-- Uploaded to: SVG Repo, www.svgrepo.com, Generator: SVG Repo Mixer Tools -->
<svg width="800px" height="800px" viewBox="0 0 32 32" id="svg5" version="1.1" xmlns="http://www.w3.org/2000/svg" xmlns:svg="http://www.w3.org/2000/svg">

<defs id="defs2"/>

<g id="layer1" transform="translate(36.000001,-388)">

<path d="m -22,392.01367 c -3.854141,0 -7,3.14587 -7,7 a 1.0001,1.0001 0 0 0 0,0.008 c 5.96e-4,0.0641 0.01522,0.12736 0.01758,0.19141 -2.819151,0.48802 -5.017579,2.84695 -5.017578,5.80078 -1e-6,3.30186 2.698142,6 6,6 h 17 c 2.7495743,0 5.0000007,-2.25042 5,-5 6e-7,-2.40455 -1.7545082,-4.33294 -4.025391,-4.80273 0.0029,-0.0645 0.02495,-0.12677 0.02539,-0.19141 a 1.0001,1.0001 0 0 0 0,-0.002 1.0001,1.0001 0 0 0 0,-0.002 1.0001,1.0001 0 0 0 0,-0.002 c -2.1e-5,-2.74956 -2.250439,-4.99998 -5,-5 a 1.0001,1.0001 0 0 0 -0.0078,0 c -0.240816,0.002 -0.469722,0.083 -0.707032,0.11914 -1.130093,-2.45391 -3.530773,-4.11897 -6.285156,-4.11914 z m 0,2 c 2.193031,1.4e-4 4.121668,1.41974 4.773438,3.51367 a 1.0001,1.0001 0 0 0 1.279296,0.64844 c 0.305156,-0.1048 0.626607,-0.15924 0.949219,-0.16211 1.667117,0.001 2.99699,1.33093 2.998047,2.99805 -0.0022,0.25382 -0.03574,0.50679 -0.101562,0.75195 a 1.0001,1.0001 0 0 0 1.054687,1.25586 c 0.01675,-0.002 0.03401,-0.003 0.05078,-0.004 1.6664745,0.003 2.9960944,1.33094 2.996094,2.99805 4e-7,1.6687 -1.3313043,3 -3,3 h -17 c -2.220979,0 -4,-1.77902 -4,-4 0,-2.22098 1.779021,-4 4,-4 0.02104,3.2e-4 0.04146,-6.4e-4 0.0625,0 a 1.0001,1.0001 0 0 0 1.015625,-1.17578 c -0.04879,-0.27244 -0.07502,-0.54747 -0.07813,-0.82422 v -0.004 c 0.0021,-2.77141 2.228072,-4.9961 5,-4.9961 z" id="path453561" style="color:#000000;fill:#000000;fill-rule:evenodd;stroke-linecap:round;stroke-linejoin:round;stroke-miterlimit:4.1;-inkscape-stroke:none"/>

</g>

</svg>